<?xml version="1.0" encoding="UTF-8" standalone="no"?><!DOCTYPE svg PUBLIC "-//W3C//DTD SVG 1.1//EN" "http://www.w3.org/Graphics/SVG/1.1/DTD/svg11.dtd"><svg width="100%" height="100%" viewBox="0 0 500 700" version="1.1" xmlns="http://www.w3.org/2000/svg" xmlns:xlink="http://www.w3.org/1999/xlink" xml:space="preserve" xmlns:serif="http://www.serif.com/" style="fill-rule:evenodd;clip-rule:evenodd;stroke-linejoin:round;stroke-miterlimit:2;"><g><path d="M500,25c0,-13.798 -11.202,-25 -25,-25l-450,0c-13.798,0 -25,11.202 -25,25l0,650c0,13.798 11.202,25 25,25l450,0c13.798,0 25,-11.202 25,-25l0,-650Z" style="fill:#fff;"/><path d="M40.884,160.718l0,-16.694l32,-60.34c1.424,-2.436 2.369,-5.122 2.782,-7.913c0.232,-2.26 0.347,-5.071 0.346,-8.432c0,-1.506 -0.028,-3.1 -0.085,-4.781c-0.027,-1.527 -0.352,-3.033 -0.957,-4.435c-1.278,-3.016 -4.395,-4.858 -7.653,-4.523c-2.332,-0.12 -4.617,0.694 -6.349,2.26c-1.564,1.509 -2.347,3.713 -2.348,6.61l-0,10.084l-17.736,0l0,-9.738c-0.025,-3.584 0.686,-7.135 2.087,-10.434c1.35,-3.181 3.298,-6.074 5.738,-8.52c2.373,-2.47 5.209,-4.449 8.347,-5.823c3.284,-1.458 6.841,-2.199 10.434,-2.175c4.113,-0.112 8.195,0.752 11.91,2.521c3.24,1.63 6.065,3.98 8.259,6.868c2.13,2.994 3.692,6.353 4.608,9.911c1.003,3.861 1.501,7.836 1.479,11.825c0,3.018 -0.059,5.54 -0.176,7.567c-0.106,1.954 -0.34,3.899 -0.7,5.823c-0.365,1.915 -0.948,3.782 -1.737,5.565c-0.813,1.858 -1.914,4.119 -3.305,6.782l-26.076,50.256l32,-0l0,17.736l-52.868,-0Z" style="fill:#231f20;fill-rule:nonzero;"/><path d="M459.008,539.16l0,16.694l-32,60.34c-1.424,2.436 -2.369,5.122 -2.782,7.913c-0.232,2.26 -0.347,5.071 -0.346,8.432c0,1.506 0.028,3.1 0.085,4.781c0.027,1.526 0.351,3.033 0.956,4.435c1.279,3.015 4.394,4.856 7.652,4.523c2.331,0.12 4.617,-0.694 6.348,-2.26c1.565,-1.509 2.347,-3.713 2.348,-6.61l0,-10.084l17.736,0l0,9.738c0.025,3.584 -0.685,7.135 -2.086,10.434c-1.35,3.181 -3.298,6.073 -5.738,8.52c-2.373,2.47 -5.209,4.449 -8.347,5.823c-3.284,1.458 -6.841,2.199 -10.434,2.175c-4.114,0.113 -8.197,-0.751 -11.913,-2.521c-3.24,-1.63 -6.065,-3.98 -8.259,-6.868c-2.13,-2.994 -3.692,-6.353 -4.608,-9.911c-1.004,-3.861 -1.501,-7.837 -1.48,-11.826c0,-3.017 0.059,-5.539 0.177,-7.566c0.105,-1.954 0.337,-3.899 0.695,-5.823c0.365,-1.915 0.948,-3.782 1.738,-5.565c0.813,-1.858 1.914,-4.119 3.305,-6.782l26.086,-50.252l-32,0l0,-17.74l52.867,0Z" style="fill:#231f20;fill-rule:nonzero;"/><path d="M88.885,214.26c-2.328,-0.801 -4.786,-1.156 -7.246,-1.045c2.087,-3.213 3.087,-7.012 2.853,-10.836c-0.632,-9.088 -8.611,-16.954 -17.837,-16.553c-9.672,0.42 -17.778,9.8 -16.4,20.63c0.47,2.418 1.392,4.725 2.718,6.8c-3.825,-0.202 -7.616,0.831 -10.811,2.944c-7.555,5.092 -10.377,15.934 -5.417,23.724c5.2,8.166 17.375,10.5 26.066,3.887c1.025,-0.892 1.954,-1.887 2.774,-2.97c0.097,5.044 -0.894,10.051 -2.907,14.677c-0.252,0.568 -0.515,1.119 -0.79,1.654l10.858,0c-0.274,-0.533 -0.538,-1.085 -0.791,-1.654c-2.022,-4.649 -3.013,-9.681 -2.906,-14.75c1.649,2.192 3.789,3.966 6.248,5.18c8.187,4 18.988,1.019 23.254,-7.171c4.472,-8.585 0.402,-20.295 -9.666,-24.517Zm-21.58,7.24l0.023,0l-0.011,0.02l-0.012,-0.02Z" style="fill:#231f20;fill-rule:nonzero;"/><path d="M311.479,329.336c-6.636,-2.284 -13.644,-3.295 -20.655,-2.978c5.949,-9.158 8.801,-19.99 8.132,-30.89c-1.8,-25.905 -24.545,-48.327 -50.843,-47.184c-27.57,1.2 -50.676,27.933 -46.748,58.806c1.34,6.889 3.969,13.463 7.748,19.376c-10.905,-0.574 -21.711,2.372 -30.817,8.4c-21.534,14.513 -29.579,45.421 -15.441,67.624c14.823,23.277 49.528,29.92 74.3,11.082c2.92,-2.543 5.57,-5.381 7.908,-8.468c0.278,14.378 -2.549,28.649 -8.286,41.836c-0.719,1.619 -1.47,3.19 -2.254,4.715l30.952,0c-0.782,-1.524 -1.533,-3.096 -2.254,-4.715c-5.764,-13.251 -8.59,-27.595 -8.283,-42.043c4.698,6.247 10.798,11.305 17.808,14.764c23.336,11.392 54.126,2.906 66.285,-20.439c12.748,-24.474 1.148,-57.851 -27.552,-69.886Zm-61.512,20.645l0.066,0l-0.033,0.057l-0.033,-0.057Z" style="fill:#231f20;fill-rule:nonzero;"/><path d="M411.008,485.618c2.328,0.801 4.787,1.155 7.246,1.044c-2.087,3.213 -3.088,7.014 -2.854,10.838c0.632,9.088 8.611,16.954 17.837,16.553c9.672,-0.42 17.778,-9.8 16.4,-20.63c-0.47,-2.417 -1.392,-4.725 -2.718,-6.8c3.826,0.201 7.617,-0.832 10.811,-2.947c7.554,-5.092 10.377,-15.935 5.417,-23.724c-5.2,-8.166 -17.375,-10.5 -26.066,-3.888c-1.024,0.893 -1.954,1.888 -2.775,2.971c-0.097,-5.044 0.894,-10.051 2.907,-14.677c0.253,-0.568 0.516,-1.119 0.791,-1.654l-10.857,0c0.274,0.533 0.537,1.085 0.79,1.654c2.023,4.649 3.014,9.681 2.906,14.75c-1.648,-2.192 -3.788,-3.967 -6.247,-5.18c-8.187,-4 -18.989,-1.019 -23.254,7.171c-4.472,8.587 -0.403,20.301 9.666,24.519Zm21.579,-7.243l-0.023,0l0.012,-0.02l0.011,0.02Z" style="fill:#231f20;fill-rule:nonzero;"/></g></svg>