<?xml version="1.0" encoding="UTF-8" standalone="no"?><!DOCTYPE svg PUBLIC "-//W3C//DTD SVG 1.1//EN" "http://www.w3.org/Graphics/SVG/1.1/DTD/svg11.dtd"><svg width="100%" height="100%" viewBox="0 0 500 700" version="1.1" xmlns="http://www.w3.org/2000/svg" xmlns:xlink="http://www.w3.org/1999/xlink" xml:space="preserve" xmlns:serif="http://www.serif.com/" style="fill-rule:evenodd;clip-rule:evenodd;stroke-linejoin:round;stroke-miterlimit:2;"><g><path d="M500,25c0,-13.798 -11.202,-25 -25,-25l-450,0c-13.798,0 -25,11.202 -25,25l0,650c0,13.798 11.202,25 25,25l450,0c13.798,0 25,-11.202 25,-25l0,-650Z" style="fill:#fff;"/><path d="M44.885,160.718l31.128,-107.118l-19.476,0l-0,14.261l-15.653,0l-0,-30.955l52.865,0l-0,17.739l-30.083,106.073l-18.781,0Z" style="fill:#f00;fill-rule:nonzero;"/><path d="M455.008,539.16l-31.129,107.118l19.477,0l0,-14.261l15.652,0l0,30.955l-52.865,0l0,-17.739l30.084,-106.073l18.781,-0Z" style="fill:#f00;fill-rule:nonzero;"/><path d="M250.189,284.187c6.163,-19.221 21.444,-33.273 39.569,-36.176c22.664,-3.63 39.222,11.862 42.852,15.259c14.814,13.86 22.261,35.859 18.808,55.384c-5.075,28.694 -30.7,35.158 -62.983,72.567c-15.574,18.112 -28.455,38.375 -38.246,60.163c-9.791,-21.788 -22.672,-42.051 -38.246,-60.163c-32.278,-37.409 -57.908,-43.873 -62.983,-72.567c-3.453,-19.525 3.993,-41.524 18.808,-55.384c3.63,-3.4 20.187,-18.889 42.851,-15.259c20.646,3.489 33.693,18.342 39.57,36.176Z" style="fill:#f00;fill-rule:nonzero;"/><path d="M67.383,198.421c2.162,-6.743 7.523,-11.673 13.882,-12.691c7.951,-1.273 13.76,4.161 15.033,5.353c5.239,5.004 7.707,12.27 6.6,19.43c-1.78,10.066 -10.772,12.334 -22.095,25.458c-5.464,6.354 -9.983,13.462 -13.418,21.106c-3.435,-7.644 -7.954,-14.752 -13.417,-21.106c-11.324,-13.124 -20.316,-15.392 -22.1,-25.458c-1.107,-7.16 1.361,-14.426 6.6,-19.43c1.274,-1.192 7.082,-6.626 15.033,-5.353c7.243,1.223 11.82,6.435 13.882,12.691Z" style="fill:#f00;fill-rule:nonzero;"/><path d="M432.51,501.457c-2.163,6.743 -7.523,11.673 -13.882,12.691c-7.951,1.273 -13.76,-4.162 -15.033,-5.353c-5.239,-5.004 -7.707,-12.27 -6.6,-19.43c1.78,-10.066 10.772,-12.334 22.095,-25.458c5.464,-6.354 9.984,-13.463 13.42,-21.107c3.435,7.644 7.953,14.752 13.417,21.106c11.324,13.124 20.315,15.392 22.1,25.458c1.107,7.16 -1.361,14.426 -6.6,19.43c-1.274,1.191 -7.083,6.626 -15.034,5.353c-7.244,-1.223 -11.822,-6.434 -13.883,-12.69Z" style="fill:#f00;fill-rule:nonzero;"/></g></svg>