<svg clip-rule="evenodd" fill-rule="evenodd" stroke-linejoin="round" stroke-miterlimit="2" viewBox="0 0 500 700" xmlns="http://www.w3.org/2000/svg"><path d="m500 25c0-13.798-11.202-25-25-25h-450c-13.798 0-25 11.202-25 25v650c0 13.798 11.202 25 25 25h450c13.798 0 25-11.202 25-25z" fill="#fff"/><g fill="#231f20" fill-rule="nonzero"><path d="m345.647 368.67c-4.794-27.112-29.012-33.219-59.509-68.566-14.716-17.113-26.887-36.258-36.138-56.845-9.251 20.585-21.423 39.729-36.138 56.841-30.5 35.347-54.714 41.454-59.509 68.566-3.405 19.247 5.109 39.688 17.77 52.33 4.388 4.381 16.088 16.064 32 15.307 17.566-.835 34.045-16.544 40.108-39.306h.47c1.2 15.135-.157 32.757-7.919 50.244-.719 1.619-1.47 3.19-2.254 4.715h30.952c-.782-1.524-1.533-3.096-2.254-4.715-7.762-17.487-9.116-35.109-7.919-50.244h.47c6.063 22.762 22.542 38.471 40.108 39.306 15.908.757 27.608-10.926 32-15.307 12.653-12.638 21.166-33.079 17.762-52.326z"/><path d="m100.872 227.857c-1.682-9.511-10.178-11.657-20.872-24.057-5.162-6.003-9.432-12.72-12.678-19.942-3.247 7.222-7.519 13.939-12.683 19.942-10.7 12.4-19.195 14.543-20.877 24.054-1.194 6.752 1.792 13.923 6.234 18.358 1.54 1.537 5.644 5.636 11.225 5.371 6.162-.294 11.944-5.805 14.071-13.79h.164c.563 6.015-.392 12.077-2.778 17.627-.252.568-.515 1.119-.79 1.654h10.858c-.274-.533-.538-1.085-.791-1.654-2.384-5.548-3.34-11.607-2.778-17.62h.165c2.127 7.985 7.908 13.5 14.071 13.79 5.58.265 9.685-3.834 11.224-5.371 4.442-4.439 7.429-11.61 6.235-18.362z"/><path d="m399.021 471.819c1.682 9.511 10.178 11.654 20.877 24.054 5.162 6.003 9.432 12.72 12.678 19.942 3.246-7.222 7.516-13.939 12.678-19.942 10.7-12.4 19.195-14.543 20.877-24.054 1.194-6.753-1.793-13.924-6.235-18.359-1.539-1.537-5.644-5.635-11.224-5.37-6.163.293-11.944 5.8-14.071 13.79h-.165c-.563-6.015.392-12.077 2.778-17.627.253-.568.516-1.119.791-1.654h-10.858c.274.533.537 1.085.79 1.654 2.386 5.55 3.341 11.612 2.778 17.627h-.164c-2.127-7.986-7.909-13.5-14.071-13.79-5.581-.265-9.685 3.833-11.225 5.37-4.442 4.44-7.428 11.606-6.234 18.359z"/><path d="m34.191 160.718v-123.812h17.736v56.516h.35l25.91-56.516h17.736l-24.173 49.56 28.692 74.252h-18.777l-20.173-54.948-9.565 17.909v37.039z"/><path d="m465.7 539.16v123.812h-17.735v-56.516h-.349l-25.91 56.516h-17.736l24.173-49.56-28.693-74.252h18.778l20.172 54.948 9.565-17.909v-37.039z"/></g></svg>