<svg clip-rule="evenodd" fill-rule="evenodd" stroke-linejoin="round" stroke-miterlimit="2" viewBox="0 0 500 700" xmlns="http://www.w3.org/2000/svg"><path d="m500 25c0-13.798-11.202-25-25-25h-450c-13.798 0-25 11.202-25 25v650c0 13.798 11.202 25 25 25h450c13.798 0 25-11.202 25-25z" fill="#fff"/><g fill="#f00" fill-rule="nonzero"><path d="m94.009 36.906v94.6c0 8.467-2.667 15.539-8 21.217-2.696 2.802-5.916 5.047-9.477 6.607-4.042 1.699-8.396 2.528-12.779 2.433-5.682 0-10.406-1.245-14.173-3.736-3.278-2.084-6.286-4.567-8.954-7.39l13.907-11.137c1.303 1.296 2.799 2.381 4.435 3.217 1.635.856 3.454 1.303 5.3 1.3 1.239-.03 2.469-.234 3.651-.607 1.496-.466 2.864-1.27 4-2.349 1.388-1.202 2.463-2.724 3.132-4.434.896-2.417 1.309-4.987 1.215-7.564v-92.157h17.743z"/><path d="m405.884 662.972v-94.6c0-8.467 2.667-15.539 8-21.218 2.696-2.801 5.916-5.046 9.477-6.606 4.041-1.699 8.395-2.528 12.778-2.433 5.683 0 10.407 1.245 14.174 3.736 3.278 2.084 6.286 4.567 8.954 7.39l-13.909 11.13c-1.302-1.296-2.798-2.381-4.434-3.217-1.635-.856-3.454-1.303-5.3-1.3-1.239.03-2.469.234-3.651.607-1.495.466-2.864 1.27-4 2.348-1.388 1.202-2.463 2.725-3.132 4.435-.896 2.417-1.309 4.987-1.215 7.564v92.164z"/><path d="m250 446.241-88.453-107.388 88.453-107.388 88.453 107.388z"/><path d="m432.576 516.438-31.031-37.674 31.031-37.674 31.031 37.674z"/><path d="m67.317 259.228-31.031-37.674 31.031-37.673 31.031 37.673z"/></g></svg>