<svg clip-rule="evenodd" fill-rule="evenodd" stroke-linejoin="round" stroke-miterlimit="2" viewBox="0 0 500 700" xmlns="http://www.w3.org/2000/svg"><path d="m500 25c0-13.798-11.202-25-25-25h-450c-13.798 0-25 11.202-25 25v650c0 13.798 11.202 25 25 25h450c13.798 0 25-11.202 25-25z" fill="#fff"/><g fill="#231f20" fill-rule="nonzero"><path d="m362.261 324.559-69.399 50.441 26.681 81.935-69.543-50.586-69.688 50.59 26.68-81.939-69.253-50.445h85.582l26.679-81.495 26.535 81.5z"/><path d="m82.792 53.624v97.208c0 8.697-2.74 15.964-8.22 21.8-2.77 2.88-6.079 5.187-9.739 6.79-4.154 1.746-8.629 2.598-13.134 2.5-5.838 0-10.692-1.281-14.563-3.842-3.368-2.142-6.458-4.693-9.2-7.594l14.295-11.437c1.337 1.332 2.874 2.448 4.556 3.306 1.681.883 3.552 1.343 5.451 1.341 1.274-.032 2.537-.242 3.752-.626 1.537-.478 2.943-1.304 4.11-2.412 1.426-1.235 2.53-2.799 3.216-4.557.922-2.484 1.347-5.125 1.251-7.773v-94.704z"/><path d="m91.725 83.644c-.091-4.667.823-9.299 2.68-13.581 1.654-3.749 4.091-7.1 7.148-9.828 2.858-2.501 6.162-4.441 9.739-5.718 10.878-3.918 23.06-1.735 31.9 5.718 2.965 2.77 5.336 6.114 6.969 9.828 1.858 4.282 2.772 8.914 2.68 13.581v67.188c.128 4.727-.787 9.425-2.68 13.759-1.636 3.609-4.01 6.835-6.969 9.471-2.902 2.577-6.267 4.579-9.917 5.9-7.09 2.62-14.889 2.62-21.979 0-3.609-1.295-6.921-3.301-9.739-5.9-3.049-2.594-5.49-5.828-7.148-9.471-1.892-4.334-2.807-9.032-2.68-13.759zm18.227 67.188c0 4.408 1.221 7.654 3.663 9.738 5.005 4.154 12.328 4.154 17.333 0 2.44-2.082 3.661-5.328 3.663-9.738v-67.188c0-4.406-1.221-7.652-3.663-9.739-5.006-4.153-12.327-4.153-17.333 0-2.443 2.086-3.664 5.332-3.663 9.739z"/><path d="m161.771 180.852v-127.228h18.229v58.076h.357l26.623-58.076h18.227l-24.838 50.927 29.484 76.3h-19.3l-20.728-56.467-9.825 18.406v38.062z"/><path d="m234.319 180.852v-127.228h54.322v17.154h-36.1v37.346h31.459v17.155h-31.454v37.346h36.1v18.227z"/><path d="m296.86 180.852v-127.228h29.305c21.443 0 32.164 12.449 32.165 37.346 0 7.505-1.162 13.878-3.485 19.12s-6.403 9.471-12.24 12.687l19.656 58.075h-19.3l-16.974-54.322h-10.9v54.322zm18.227-110.074v39.669h10.364c2.627.11 5.248-.347 7.683-1.34 1.827-.825 3.379-2.159 4.468-3.842 1.033-1.914 1.7-4.005 1.965-6.164.382-2.813.561-5.649.536-8.488.025-2.839-.154-5.675-.536-8.488-.287-2.236-1.016-4.392-2.144-6.344-2.267-3.333-6.555-5-12.866-5z"/><path d="m419 646.174v-97.208c0-8.697 2.74-15.964 8.22-21.8 2.77-2.88 6.079-5.187 9.739-6.791 4.154-1.745 8.629-2.597 13.134-2.5 5.838 0 10.692 1.281 14.563 3.842 3.368 2.142 6.458 4.693 9.2 7.594l-14.3 11.436c-1.338-1.33-2.875-2.443-4.556-3.3-1.681-.883-3.552-1.343-5.451-1.341-1.274.032-2.537.242-3.752.626-1.537.478-2.943 1.304-4.11 2.412-1.427 1.235-2.531 2.799-3.216 4.557-.922 2.484-1.347 5.125-1.251 7.773v94.706z"/><path d="m410.062 616.154c.091 4.667-.823 9.299-2.68 13.581-1.654 3.749-4.091 7.1-7.148 9.828-2.858 2.501-6.162 4.44-9.739 5.718-10.878 3.918-23.06 1.735-31.9-5.718-2.965-2.77-5.336-6.114-6.969-9.828-1.858-4.282-2.772-8.914-2.68-13.581v-67.188c-.128-4.727.787-9.425 2.68-13.759 1.636-3.609 4.01-6.835 6.969-9.471 2.902-2.577 6.267-4.58 9.917-5.9 7.09-2.62 14.889-2.62 21.979 0 3.609 1.294 6.921 3.301 9.739 5.9 3.049 2.594 5.49 5.828 7.148 9.471 1.892 4.334 2.807 9.032 2.68 13.759zm-18.227-67.188c0-4.409-1.221-7.656-3.663-9.739-5.006-4.153-12.327-4.153-17.333 0-2.44 2.083-3.661 5.33-3.663 9.739v67.188c0 4.406 1.221 7.652 3.663 9.739 5.006 4.153 12.327 4.153 17.333 0 2.443-2.086 3.664-5.332 3.663-9.739z"/><path d="m340.016 518.946v127.228h-18.227v-58.074h-.357l-26.625 58.074h-18.227l24.838-50.927-29.484-76.3h19.3l20.728 56.466 9.828-18.405v-38.062z"/><path d="m267.468 518.946v127.228h-54.322v-17.154h36.1v-37.346h-31.454v-17.155h31.449v-37.347h-36.1v-18.226z"/><path d="m204.927 518.946v127.228h-29.3c-21.443 0-32.165-12.449-32.165-37.346 0-7.505 1.162-13.878 3.485-19.12s6.403-9.471 12.24-12.687l-19.656-58.075h19.3l16.969 54.322h10.9v-54.322zm-18.227 110.074v-39.67h-10.364c-2.627-.109-5.248.348-7.683 1.341-1.827.825-3.379 2.159-4.468 3.842-1.033 1.914-1.7 4.005-1.965 6.164-.715 5.636-.715 11.34 0 16.976.287 2.236 1.016 4.392 2.144 6.344 2.267 3.333 6.555 5 12.866 5z"/></g></svg>