<svg clip-rule="evenodd" fill-rule="evenodd" stroke-linejoin="round" stroke-miterlimit="2" viewBox="0 0 500 700" xmlns="http://www.w3.org/2000/svg"><path d="m500 25c0-13.798-11.202-25-25-25h-450c-13.798 0-25 11.202-25 25v650c0 13.798 11.202 25 25 25h450c13.798 0 25-11.202 25-25z" fill="#fff"/><g fill="#231f20" fill-rule="nonzero"><path d="m33.408 66.194c-.088-4.541.801-9.049 2.609-13.216 1.61-3.647 3.982-6.908 6.956-9.562 2.781-2.434 5.996-4.322 9.477-5.565 10.585-3.812 22.438-1.687 31.04 5.565 2.885 2.695 5.193 5.948 6.783 9.562 1.806 4.167 2.695 8.675 2.606 13.216v65.383c.105 4.374-.787 8.715-2.606 12.694l10.953 8.869-9.042 10.78-10.434-8.52c-5.251 4.261-11.839 6.539-18.6 6.434-3.649-.01-7.268-.656-10.695-1.911-3.511-1.258-6.734-3.21-9.477-5.738-2.967-2.525-5.342-5.673-6.956-9.219-1.842-4.217-2.733-8.789-2.609-13.389zm17.739 65.383c0 4.291 1.188 7.45 3.563 9.477 2.341 2.017 5.345 3.102 8.435 3.044 1.311.059 2.619-.18 3.824-.7l-8-6.433 9.043-10.78 7.129 5.737v-65.728c0-4.287-1.189-7.446-3.566-9.477-4.871-4.041-11.996-4.041-16.867 0-2.378 2.032-3.566 5.191-3.563 9.477z"/><path d="m88.885 214.26c-2.328-.801-4.786-1.156-7.246-1.045 2.087-3.213 3.087-7.012 2.853-10.836-.632-9.088-8.611-16.954-17.837-16.553-9.672.42-17.778 9.8-16.4 20.63.47 2.418 1.392 4.725 2.718 6.8-3.825-.202-7.616.831-10.811 2.944-7.555 5.092-10.377 15.934-5.417 23.724 5.2 8.166 17.375 10.5 26.066 3.887 1.025-.892 1.954-1.887 2.774-2.97.097 5.044-.894 10.051-2.907 14.677-.252.568-.515 1.119-.79 1.654h10.858c-.274-.533-.538-1.085-.791-1.654-2.022-4.649-3.013-9.681-2.906-14.75 1.649 2.192 3.789 3.966 6.248 5.18 8.187 4 18.988 1.019 23.254-7.171 4.472-8.585.402-20.295-9.666-24.517zm-21.58 7.24h.023l-.011.02z"/><path d="m311.479 329.336c-6.636-2.284-13.644-3.295-20.655-2.978 5.949-9.158 8.801-19.99 8.132-30.89-1.8-25.905-24.545-48.327-50.843-47.184-27.57 1.2-50.676 27.933-46.748 58.806 1.34 6.889 3.969 13.463 7.748 19.376-10.905-.574-21.711 2.372-30.817 8.4-21.534 14.513-29.579 45.421-15.441 67.624 14.823 23.277 49.528 29.92 74.3 11.082 2.92-2.543 5.57-5.381 7.908-8.468.278 14.378-2.549 28.649-8.286 41.836-.719 1.619-1.47 3.19-2.254 4.715h30.952c-.782-1.524-1.533-3.096-2.254-4.715-5.764-13.251-8.59-27.595-8.283-42.043 4.698 6.247 10.798 11.305 17.808 14.764 23.336 11.392 54.126 2.906 66.285-20.439 12.748-24.474 1.148-57.851-27.552-69.886zm-61.512 20.645h.066l-.033.057z"/><path d="m411.008 485.618c2.328.801 4.787 1.155 7.246 1.044-2.087 3.213-3.088 7.014-2.854 10.838.632 9.088 8.611 16.954 17.837 16.553 9.672-.42 17.778-9.8 16.4-20.63-.47-2.417-1.392-4.725-2.718-6.8 3.826.201 7.617-.832 10.811-2.947 7.554-5.092 10.377-15.935 5.417-23.724-5.2-8.166-17.375-10.5-26.066-3.888-1.024.893-1.954 1.888-2.775 2.971-.097-5.044.894-10.051 2.907-14.677.253-.568.516-1.119.791-1.654h-10.857c.274.533.537 1.085.79 1.654 2.023 4.649 3.014 9.681 2.906 14.75-1.648-2.192-3.788-3.967-6.247-5.18-8.187-4-18.989-1.019-23.254 7.171-4.472 8.587-.403 20.301 9.666 24.519zm21.579-7.243h-.023l.012-.02z"/><path d="m466.485 633.717c.088 4.541-.802 9.049-2.609 13.216-1.61 3.647-3.982 6.908-6.956 9.562-2.781 2.434-5.996 4.322-9.477 5.565-10.585 3.815-22.44 1.692-31.043-5.56-2.886-2.695-5.193-5.948-6.783-9.562-1.807-4.167-2.695-8.675-2.606-13.216v-65.388c-.105-4.374.786-8.715 2.606-12.693l-10.953-8.87 9.042-10.78 10.434 8.52c5.253-4.262 11.842-6.54 18.605-6.433 3.649.01 7.268.656 10.695 1.91 3.511 1.259 6.734 3.21 9.477 5.738 2.967 2.525 5.342 5.673 6.956 9.219 1.842 4.217 2.732 8.789 2.609 13.389zm-17.739-65.383c0-4.291-1.188-7.45-3.563-9.477-2.341-2.017-5.346-3.101-8.435-3.043-1.311-.059-2.619.18-3.824.7l8 6.434-9.042 10.78-7.129-5.738v65.732c0 4.288 1.189 7.447 3.566 9.477 4.87 4.044 11.997 4.044 16.867 0 2.378-2.031 3.566-5.19 3.563-9.477z"/></g></svg>