<svg clip-rule="evenodd" fill-rule="evenodd" stroke-linejoin="round" stroke-miterlimit="2" viewBox="0 0 500 700" xmlns="http://www.w3.org/2000/svg"><path d="m500 25c0-13.798-11.202-25-25-25h-450c-13.798 0-25 11.202-25 25v650c0 13.798 11.202 25 25 25h450c13.798 0 25-11.202 25-25z" fill="#fff"/><g fill="#f00" fill-rule="nonzero"><path d="m34.191 160.718v-123.812h17.736v56.516h.35l25.91-56.516h17.736l-24.173 49.56 28.692 74.252h-18.777l-20.173-54.948-9.565 17.909v37.039z"/><path d="m465.7 539.16v123.812h-17.735v-56.516h-.349l-25.91 56.516h-17.736l24.173-49.56-28.693-74.252h18.778l20.172 54.948 9.565-17.909v-37.039z"/><path d="m250.189 284.187c6.163-19.221 21.444-33.273 39.569-36.176 22.664-3.63 39.222 11.862 42.852 15.259 14.814 13.86 22.261 35.859 18.808 55.384-5.075 28.694-30.7 35.158-62.983 72.567-15.574 18.112-28.455 38.375-38.246 60.163-9.791-21.788-22.672-42.051-38.246-60.163-32.278-37.409-57.908-43.873-62.983-72.567-3.453-19.525 3.993-41.524 18.808-55.384 3.63-3.4 20.187-18.889 42.851-15.259 20.646 3.489 33.693 18.342 39.57 36.176z"/><path d="m67.383 198.421c2.162-6.743 7.523-11.673 13.882-12.691 7.951-1.273 13.76 4.161 15.033 5.353 5.239 5.004 7.707 12.27 6.6 19.43-1.78 10.066-10.772 12.334-22.095 25.458-5.464 6.354-9.983 13.462-13.418 21.106-3.435-7.644-7.954-14.752-13.417-21.106-11.324-13.124-20.316-15.392-22.1-25.458-1.107-7.16 1.361-14.426 6.6-19.43 1.274-1.192 7.082-6.626 15.033-5.353 7.243 1.223 11.82 6.435 13.882 12.691z"/><path d="m432.51 501.457c-2.163 6.743-7.523 11.673-13.882 12.691-7.951 1.273-13.76-4.162-15.033-5.353-5.239-5.004-7.707-12.27-6.6-19.43 1.78-10.066 10.772-12.334 22.095-25.458 5.464-6.354 9.984-13.463 13.42-21.107 3.435 7.644 7.953 14.752 13.417 21.106 11.324 13.124 20.315 15.392 22.1 25.458 1.107 7.16-1.361 14.426-6.6 19.43-1.274 1.191-7.083 6.626-15.034 5.353-7.244-1.223-11.822-6.434-13.883-12.69z"/></g></svg>